HIERARCHY
ROOT mixamorig:Hips
{
	OFFSET 0.000000 201.639420 0.000000
	CHANNELS 6 Xposition Yposition Zposition Xrotation Yrotation Zrotation
	JOINT mixamorig:Spine
	{
		OFFSET 0.006200 19.524994 -2.481800
		CHANNELS 3 Xrotation Yrotation Zrotation
		JOINT mixamorig:Spine1
		{
			OFFSET -0.000900 22.835007 -2.825400
			CHANNELS 3 Xrotation Yrotation Zrotation
			JOINT mixamorig:Spine2
			{
				OFFSET -0.020600 26.552490 -3.193300
				CHANNELS 3 Xrotation Yrotation Zrotation
				JOINT mixamorig:Neck
				{
					OFFSET -0.060000 30.701813 1.352200
					CHANNELS 3 Xrotation Yrotation Zrotation
					JOINT mixamorig:Head
					{
						OFFSET -0.087200 22.547607 3.670900
						CHANNELS 3 Xrotation Yrotation Zrotation
						JOINT mixamorig:HeadTop_End
						{
							OFFSET -0.830600 40.355194 7.893500
							CHANNELS 3 Xrotation Yrotation Zrotation
							End Site
							{
								OFFSET 0.000000 30.592346 0.000000
							}
						}
						JOINT mixamorig:RightEye
						{
							OFFSET -6.302100 18.118591 16.197100
							CHANNELS 3 Xrotation Yrotation Zrotation
							End Site
							{
								OFFSET 0.000000 30.592346 0.000000
							}
						}
						JOINT mixamorig:LeftEye
						{
							OFFSET 6.741500 18.382690 16.401899
							CHANNELS 3 Xrotation Yrotation Zrotation
							End Site
							{
								OFFSET 0.000000 30.592346 0.000000
							}
						}
					}
				}
				JOINT mixamorig:LeftShoulder
				{
					OFFSET 11.924900 18.230499 1.425400
					CHANNELS 3 Xrotation Yrotation Zrotation
					JOINT mixamorig:LeftArm
					{
						OFFSET 25.435989 -0.697632 -5.229300
						CHANNELS 3 Xrotation Yrotation Zrotation
						JOINT mixamorig:LeftForeArm
						{
							OFFSET 54.684776 0.000000 0.000000
							CHANNELS 3 Xrotation Yrotation Zrotation
							JOINT mixamorig:LeftHand
							{
								OFFSET 55.098175 0.000000 0.000000
								CHANNELS 3 Xrotation Yrotation Zrotation
								JOINT mixamorig:LeftHandMiddle1
								{
									OFFSET 23.369751 0.000000 0.000000
									CHANNELS 3 Xrotation Yrotation Zrotation
									JOINT mixamorig:LeftHandMiddle2
									{
										OFFSET 6.378677 0.000000 0.000000
										CHANNELS 3 Xrotation Yrotation Zrotation
										JOINT mixamorig:LeftHandMiddle3
										{
											OFFSET 6.148331 0.000000 0.000000
											CHANNELS 3 Xrotation Yrotation Zrotation
											JOINT mixamorig:LeftHandMiddle4
											{
												OFFSET 6.582504 0.000000 0.000000
												CHANNELS 3 Xrotation Yrotation Zrotation
												End Site
												{
													OFFSET -1.168900 6.395691 1.028606
												}
											}
										}
									}
								}
								JOINT mixamorig:LeftHandThumb1
								{
									OFFSET 7.235672 -3.848206 5.434273
									CHANNELS 3 Xrotation Yrotation Zrotation
									JOINT mixamorig:LeftHandThumb2
									{
										OFFSET 6.568451 -3.792297 3.792300
										CHANNELS 3 Xrotation Yrotation Zrotation
										JOINT mixamorig:LeftHandThumb3
										{
											OFFSET 6.063080 -3.500519 3.500518
											CHANNELS 3 Xrotation Yrotation Zrotation
											JOINT mixamorig:LeftHandThumb4
											{
												OFFSET 4.793182 -2.767334 2.767349
												CHANNELS 3 Xrotation Yrotation Zrotation
												End Site
												{
													OFFSET 0.101639 6.054260 1.275483
												}
											}
										}
									}
								}
								JOINT mixamorig:LeftHandIndex1
								{
									OFFSET 23.101074 -0.309540 4.992809
									CHANNELS 3 Xrotation Yrotation Zrotation
									JOINT mixamorig:LeftHandIndex2
									{
										OFFSET 6.226883 0.000000 0.000000
										CHANNELS 3 Xrotation Yrotation Zrotation
										JOINT mixamorig:LeftHandIndex3
										{
											OFFSET 6.094330 0.000000 0.000000
											CHANNELS 3 Xrotation Yrotation Zrotation
											JOINT mixamorig:LeftHandIndex4
											{
												OFFSET 5.482605 0.000000 0.000000
												CHANNELS 3 Xrotation Yrotation Zrotation
												End Site
												{
													OFFSET -1.427902 5.233032 0.797164
												}
											}
										}
									}
								}
								JOINT mixamorig:LeftHandRing1
								{
									OFFSET 22.299240 0.021149 -3.964172
									CHANNELS 3 Xrotation Yrotation Zrotation
									JOINT mixamorig:LeftHandRing2
									{
										OFFSET 6.321869 0.000000 0.000000
										CHANNELS 3 Xrotation Yrotation Zrotation
										JOINT mixamorig:LeftHandRing3
										{
											OFFSET 5.899796 0.000000 0.000000
											CHANNELS 3 Xrotation Yrotation Zrotation
											JOINT mixamorig:LeftHandRing4
											{
												OFFSET 6.517899 0.000000 0.000000
												CHANNELS 3 Xrotation Yrotation Zrotation
												End Site
												{
													OFFSET -1.637299 6.232208 0.980890
												}
											}
										}
									}
								}
								JOINT mixamorig:LeftHandPinky1
								{
									OFFSET 20.463791 -0.302338 -8.562233
									CHANNELS 3 Xrotation Yrotation Zrotation
									JOINT mixamorig:LeftHandPinky2
									{
										OFFSET 6.908646 0.000000 0.000000
										CHANNELS 3 Xrotation Yrotation Zrotation
										JOINT mixamorig:LeftHandPinky3
										{
											OFFSET 4.622849 0.000000 0.000000
											CHANNELS 3 Xrotation Yrotation Zrotation
											JOINT mixamorig:LeftHandPinky4
											{
												OFFSET 5.216080 0.000000 0.000000
												CHANNELS 3 Xrotation Yrotation Zrotation
												End Site
												{
													OFFSET -0.606308 5.116241 0.814926
												}
											}
										}
									}
								}
							}
						}
					}
				}
				JOINT mixamorig:RightShoulder
				{
					OFFSET -12.001300 18.284088 1.348900
					CHANNELS 3 Xrotation Yrotation Zrotation
					JOINT mixamorig:RightArm
					{
						OFFSET -25.308500 -0.751312 -5.164599
						CHANNELS 3 Xrotation Yrotation Zrotation
						JOINT mixamorig:RightForeArm
						{
							OFFSET -54.684429 0.000000 0.000000
							CHANNELS 3 Xrotation Yrotation Zrotation
							JOINT mixamorig:RightHand
							{
								OFFSET -55.150291 0.000000 0.000000
								CHANNELS 3 Xrotation Yrotation Zrotation
								JOINT mixamorig:RightHandMiddle1
								{
									OFFSET -23.317566 0.000000 0.000000
									CHANNELS 3 Xrotation Yrotation Zrotation
									JOINT mixamorig:RightHandMiddle2
									{
										OFFSET -6.378403 0.000000 0.000000
										CHANNELS 3 Xrotation Yrotation Zrotation
										JOINT mixamorig:RightHandMiddle3
										{
											OFFSET -6.148193 0.000000 0.000000
											CHANNELS 3 Xrotation Yrotation Zrotation
											JOINT mixamorig:RightHandMiddle4
											{
												OFFSET -6.583389 0.000000 0.000000
												CHANNELS 3 Xrotation Yrotation Zrotation
												End Site
												{
													OFFSET 1.171692 6.395905 1.029786
												}
											}
										}
									}
								}
								JOINT mixamorig:RightHandThumb1
								{
									OFFSET -7.190521 -3.860474 5.435846
									CHANNELS 3 Xrotation Yrotation Zrotation
									JOINT mixamorig:RightHandThumb2
									{
										OFFSET -6.567429 -3.791718 3.791708
										CHANNELS 3 Xrotation Yrotation Zrotation
										JOINT mixamorig:RightHandThumb3
										{
											OFFSET -6.062469 -3.500153 3.500166
											CHANNELS 3 Xrotation Yrotation Zrotation
											JOINT mixamorig:RightHandThumb4
											{
												OFFSET -4.792618 -2.767029 2.767022
												CHANNELS 3 Xrotation Yrotation Zrotation
												End Site
												{
													OFFSET -0.100327 6.053253 1.276754
												}
											}
										}
									}
								}
								JOINT mixamorig:RightHandIndex1
								{
									OFFSET -23.048981 -0.310791 4.992554
									CHANNELS 3 Xrotation Yrotation Zrotation
									JOINT mixamorig:RightHandIndex2
									{
										OFFSET -6.227539 0.000000 0.000000
										CHANNELS 3 Xrotation Yrotation Zrotation
										JOINT mixamorig:RightHandIndex3
										{
											OFFSET -6.095047 0.000000 0.000000
											CHANNELS 3 Xrotation Yrotation Zrotation
											JOINT mixamorig:RightHandIndex4
											{
												OFFSET -5.484772 0.000000 0.000000
												CHANNELS 3 Xrotation Yrotation Zrotation
												End Site
												{
													OFFSET 1.420593 5.237305 0.797056
												}
											}
										}
									}
								}
								JOINT mixamorig:RightHandRing1
								{
									OFFSET -22.246323 0.020569 -3.963762
									CHANNELS 3 Xrotation Yrotation Zrotation
									JOINT mixamorig:RightHandRing2
									{
										OFFSET -6.322128 0.000000 0.000000
										CHANNELS 3 Xrotation Yrotation Zrotation
										JOINT mixamorig:RightHandRing3
										{
											OFFSET -5.900024 0.000000 0.000000
											CHANNELS 3 Xrotation Yrotation Zrotation
											JOINT mixamorig:RightHandRing4
											{
												OFFSET -6.518356 0.000000 0.000000
												CHANNELS 3 Xrotation Yrotation Zrotation
												End Site
												{
													OFFSET 1.636398 6.232697 0.982186
												}
											}
										}
									}
								}
								JOINT mixamorig:RightHandPinky1
								{
									OFFSET -20.411011 -0.303314 -8.561701
									CHANNELS 3 Xrotation Yrotation Zrotation
									JOINT mixamorig:RightHandPinky2
									{
										OFFSET -6.907349 0.000000 0.000000
										CHANNELS 3 Xrotation Yrotation Zrotation
										JOINT mixamorig:RightHandPinky3
										{
											OFFSET -4.623840 0.000000 0.000000
											CHANNELS 3 Xrotation Yrotation Zrotation
											JOINT mixamorig:RightHandPinky4
											{
												OFFSET -5.218353 0.000000 0.000000
												CHANNELS 3 Xrotation Yrotation Zrotation
												End Site
												{
													OFFSET 0.602097 5.118835 0.816273
												}
											}
										}
									}
								}
							}
						}
					}
				}
			}
		}
	}
	JOINT mixamorig:LeftUpLeg
	{
		OFFSET 18.168400 -13.561905 -0.039000
		CHANNELS 3 Xrotation Yrotation Zrotation
		JOINT mixamorig:LeftLeg
		{
			OFFSET 0.577358 -80.825211 -3.695000
			CHANNELS 3 Xrotation Yrotation Zrotation
			JOINT mixamorig:LeftFoot
			{
				OFFSET -0.577356 -83.370262 -6.520700
				CHANNELS 3 Xrotation Yrotation Zrotation
				JOINT mixamorig:LeftToeBase
				{
					OFFSET 0.750401 -20.798306 25.135401
					CHANNELS 3 Xrotation Yrotation Zrotation
					JOINT mixamorig:LeftToe_End
					{
						OFFSET -0.000500 0.001200 19.917799
						CHANNELS 3 Xrotation Yrotation Zrotation
						End Site
						{
							OFFSET 0.000000 19.917805 0.000000
						}
					}
				}
			}
		}
	}
	JOINT mixamorig:RightUpLeg
	{
		OFFSET -18.162500 -13.585098 -0.041000
		CHANNELS 3 Xrotation Yrotation Zrotation
		JOINT mixamorig:RightLeg
		{
			OFFSET -0.595024 -80.945297 -3.631900
			CHANNELS 3 Xrotation Yrotation Zrotation
			JOINT mixamorig:RightFoot
			{
				OFFSET 0.595024 -83.218193 -6.561200
				CHANNELS 3 Xrotation Yrotation Zrotation
				JOINT mixamorig:RightToeBase
				{
					OFFSET -0.753601 -20.807106 25.115000
					CHANNELS 3 Xrotation Yrotation Zrotation
					JOINT mixamorig:RightToe_End
					{
						OFFSET 0.000299 0.001700 19.918200
						CHANNELS 3 Xrotation Yrotation Zrotation
						End Site
						{
							OFFSET 0.000000 19.918203 0.000000
						}
					}
				}
			}
		}
	}
}
MOTION
Frames: 4
Frame Time: 0.016667
6.387587 200.273972 21.472281 0.246604 -2.992890 -7.460778 3.522311 -5.064776 1.231164 2.543574 -0.748497 0.564624 2.532544 -0.736122 0.539145 1.281430 -4.702080 9.075184 -6.383950 -12.901316 2.070121 -0.000000 0.000002 0.000000 -0.000000 0.000002 0.000000 -0.000000 0.000002 0.000000 3.496932 -24.194627 2.624443 -0.540471 -56.134118 -5.806156 -0.000312 -98.019956 -0.000320 11.839307 -16.883297 -10.167035 3.333930 7.702458 -74.226097 7.617192 5.579023 -107.597363 4.061976 5.571732 -72.166433 -0.000000 0.000001 0.000002 -0.170909 -8.433626 8.524700 28.151291 40.699844 -40.268565 -16.996308 48.233177 28.541465 -0.000002 0.000000 0.000000 8.811005 3.444361 -79.249435 5.106767 5.803692 -82.679337 6.478321 5.817457 -96.164788 -0.000002 -0.000001 0.000002 1.222749 7.451163 -79.688575 6.276910 5.835604 -94.180891 2.911409 5.061207 -59.796933 -0.000001 0.000001 0.000002 3.824499 16.165673 -84.777059 2.476395 4.782575 -54.729968 4.951503 5.781748 -81.140919 -0.000001 0.000002 -0.000000 -22.774228 7.440314 -10.065804 -21.452443 16.211944 -3.412738 -0.000003 29.909351 -0.000006 -37.667274 17.568705 -28.019751 2.394227 -6.449770 73.508750 6.061321 -4.440933 107.565753 1.294836 -3.224261 43.751128 -0.000001 0.000000 0.000001 -0.911921 10.394946 -7.978562 9.320390 -37.042537 6.117637 -13.438182 -32.124265 -28.973932 -0.000001 -0.000000 0.000000 5.844099 -1.313852 51.374951 4.065506 -4.619513 82.693162 5.155805 -4.630443 96.153074 0.000001 0.000001 -0.000001 1.061150 -7.061150 91.924497 4.352646 -4.647241 86.246711 1.163595 -3.081529 41.365279 -0.000002 0.000002 -0.000002 3.692886 -14.857955 97.846763 1.761105 -3.648767 51.517808 1.877931 -3.738442 53.331210 -0.000001 -0.000001 -0.000001 -21.772778 9.226412 24.262980 30.282982 7.715949 0.237062 -2.211224 0.542420 -1.787959 -2.408110 -0.000012 -0.000005 0.000001 -0.000001 0.000001 -42.388817 -7.004152 -22.640182 61.435079 -9.699491 -1.598301 23.498228 -14.748516 17.369931 3.854607 -0.000020 0.000008 0.000002 0.000003 -0.000003 
3.186127 200.865417 22.386011 0.817591 -1.984943 -6.567468 2.576761 -5.208900 -0.382621 1.954504 -0.782985 0.382569 1.941924 -0.775414 0.364029 1.662103 -5.002478 10.592758 -4.294812 -12.579149 1.555273 0.000000 -0.000001 0.000000 0.000000 -0.000001 0.000000 0.000000 -0.000001 0.000000 3.201225 -24.692850 1.413731 4.867945 -55.036411 -0.877368 -0.000322 -98.072227 -0.000293 8.298452 -16.079339 -11.211890 3.333935 7.702456 -74.226097 7.617181 5.579030 -107.597357 4.061978 5.571736 -72.166440 -0.000000 -0.000001 0.000003 -0.170907 -8.433624 8.524698 28.151294 40.699861 -40.268565 -16.996306 48.233157 28.541458 -0.000002 -0.000001 -0.000002 8.811008 3.444365 -79.249428 5.106766 5.803687 -82.679303 6.478303 5.817454 -96.164747 -0.000003 -0.000001 -0.000001 1.222749 7.451164 -79.688582 6.276907 5.835612 -94.180891 2.911410 5.061206 -59.796933 -0.000002 -0.000000 0.000002 3.824501 16.165663 -84.777080 2.476397 4.782575 -54.729957 4.951502 5.781755 -81.140912 -0.000001 0.000000 0.000001 -22.941980 4.418913 -10.783517 -5.103706 25.301155 -7.447003 -0.000004 10.641856 0.000002 -40.569258 19.554844 -16.219416 2.394240 -6.449776 73.508750 6.061318 -4.440886 107.565753 1.294830 -3.224253 43.751139 0.000001 -0.000001 0.000001 -0.911929 10.394952 -7.978558 9.320358 -37.042547 6.117598 -13.438170 -32.124255 -28.973912 -0.000001 0.000001 -0.000002 5.844104 -1.313845 51.374962 4.065485 -4.619483 82.693148 5.155825 -4.630461 96.153074 0.000003 -0.000000 -0.000000 1.061163 -7.061152 91.924483 4.352654 -4.647216 86.246725 1.163586 -3.081533 41.365261 -0.000003 -0.000001 0.000007 3.692902 -14.857938 97.846770 1.761095 -3.648733 51.517808 1.877931 -3.738447 53.331210 0.000000 -0.000002 -0.000001 -23.297623 10.579527 22.425622 33.700560 5.836673 0.240995 -3.206547 0.264163 -4.697583 -2.373597 0.000015 -0.000001 -0.000000 0.000001 0.000000 -34.509558 -6.100156 -20.381816 48.008915 -8.993755 -1.389120 26.382941 -11.021277 19.298044 2.290487 0.000004 -0.000005 -0.000001 -0.000001 0.000003 
0.100693 200.830063 23.280296 1.348819 -0.908987 -5.640008 1.728297 -5.332604 -1.873900 1.449339 -0.811714 0.262002 1.435958 -0.807518 0.249382 1.776708 -5.217355 11.661966 -2.422180 -12.236113 1.090502 -0.000000 -0.000001 -0.000000 -0.000000 -0.000001 -0.000000 -0.000000 -0.000001 -0.000000 2.861692 -25.028257 0.086450 9.078140 -53.557562 2.831587 0.000090 -98.762978 0.000079 5.006607 -15.281908 -12.354747 3.333940 7.702461 -74.226097 7.617184 5.579019 -107.597370 4.061978 5.571736 -72.166440 -0.000002 0.000000 0.000001 -0.170904 -8.433621 8.524700 28.151287 40.699847 -40.268562 -16.996313 48.233167 28.541467 -0.000001 -0.000001 0.000000 8.811009 3.444368 -79.249408 5.106761 5.803691 -82.679296 6.478314 5.817458 -96.164767 -0.000003 0.000000 -0.000000 1.222740 7.451166 -79.688589 6.276912 5.835609 -94.180891 2.911408 5.061201 -59.796940 -0.000002 0.000003 -0.000001 3.824498 16.165670 -84.777059 2.476393 4.782575 -54.729964 4.951509 5.781751 -81.140933 0.000000 -0.000000 0.000002 -23.155526 1.487922 -11.841759 10.671545 30.091450 -12.233389 -0.000001 0.000025 -0.000019 -35.894676 19.832783 -8.030004 2.394234 -6.449765 73.508757 6.061323 -4.440907 107.565767 1.294834 -3.224255 43.751128 0.000000 -0.000001 0.000002 -0.911916 10.394934 -7.978553 9.320378 -37.042537 6.117627 -13.438177 -32.124268 -28.973919 -0.000005 0.000001 0.000002 5.844110 -1.313845 51.374948 4.065478 -4.619492 82.693155 5.155815 -4.630450 96.153060 0.000001 -0.000004 -0.000000 1.061166 -7.061145 91.924483 4.352655 -4.647227 86.246718 1.163581 -3.081516 41.365268 0.000000 0.000002 0.000006 3.692898 -14.857939 97.846770 1.761109 -3.648742 51.517795 1.877937 -3.738444 53.331217 0.000004 0.000002 0.000004 -23.877913 11.945199 20.053096 36.048646 4.019428 0.272581 -4.437237 0.656906 -7.547055 -2.403252 0.000003 0.000001 -0.000001 -0.000001 0.000000 -26.407673 -5.081230 -18.530897 34.022996 -7.518361 -1.202014 27.790177 -8.195333 19.465068 -0.957595 -0.000002 0.000006 0.000001 -0.000000 0.000000 
-2.801729 200.301834 24.095379 1.755732 0.240718 -4.888240 1.058538 -5.453583 -2.968092 1.095657 -0.835677 0.225550 1.082335 -0.833450 0.216779 1.640962 -5.303267 12.170507 -0.964757 -11.795342 0.707366 -0.000000 0.000002 0.000000 -0.000000 0.000002 0.000000 -0.000000 0.000002 0.000000 2.530974 -25.100681 -1.208502 11.790133 -51.996816 4.843428 -0.000075 -99.869482 -0.000065 2.549971 -14.620758 -13.451769 3.333938 7.702463 -74.226097 7.617178 5.579022 -107.597322 4.061972 5.571732 -72.166433 -0.000002 0.000001 0.000001 -0.170906 -8.433623 8.524698 28.151285 40.699844 -40.268558 -16.996311 48.233164 28.541477 0.000000 0.000000 -0.000000 8.811015 3.444361 -79.249401 5.106768 5.803682 -82.679296 6.478298 5.817449 -96.164747 -0.000000 0.000000 -0.000001 1.222740 7.451168 -79.688589 6.276909 5.835609 -94.180891 2.911404 5.061202 -59.796920 -0.000001 -0.000003 0.000004 3.824498 16.165668 -84.777107 2.476391 4.782578 -54.729937 4.951511 5.781755 -81.140926 -0.000001 0.000001 0.000003 -23.440881 -1.151276 -13.152336 23.293848 29.855904 -16.293913 -0.000001 0.000010 0.000006 -24.552561 19.317320 -3.743220 2.394241 -6.449768 73.508763 6.061313 -4.440916 107.565740 1.294840 -3.224274 43.751118 0.000001 0.000005 0.000001 -0.911921 10.394972 -7.978570 9.320386 -37.042554 6.117628 -13.438182 -32.124265 -28.973908 0.000000 -0.000000 0.000002 5.844110 -1.313868 51.374958 4.065490 -4.619479 82.693169 5.155819 -4.630455 96.153074 0.000001 -0.000000 -0.000000 1.061177 -7.061152 91.924470 4.352664 -4.647227 86.246745 1.163600 -3.081526 41.365265 -0.000001 -0.000002 -0.000000 3.692904 -14.857943 97.846736 1.761111 -3.648748 51.517788 1.877924 -3.738439 53.331230 0.000002 0.000000 0.000001 -23.469573 13.026932 17.244343 37.090249 3.211361 0.364896 -5.944575 1.946492 -9.159246 -2.592090 -0.000011 0.000003 -0.000000 0.000002 -0.000000 -17.824251 -4.642833 -17.026319 19.313816 -5.923686 -1.070526 27.881940 -6.651218 18.019250 -8.879348 -0.335175 5.521489 -0.000000 -0.000001 0.000000 
